<svg width="32" height="32" viewBox="0 0 32 32" fill="none" xmlns="http://www.w3.org/2000/svg">
<g clip-path="url(#clip0_151_22)">
<path d="M32.0025 16.099C32.0025 7.20699 24.8385 -0.00100708 16.0025 -0.00100708C7.16254 0.00099292 -0.00146484 7.20699 -0.00146484 16.101C-0.00146484 24.135 5.85054 30.795 13.4985 32.003V20.753H9.43854V16.101H13.5025V12.551C13.5025 8.51699 15.8925 6.28899 19.5465 6.28899C21.2985 6.28899 23.1285 6.60299 23.1285 6.60299V10.563H21.1105C19.1245 10.563 18.5045 11.805 18.5045 13.079V16.099H22.9405L22.2325 20.751H18.5025V32.001C26.1505 30.793 32.0025 24.133 32.0025 16.099Z" fill="#35312E"/>
</g>
<defs>
<clipPath id="clip0_151_22">
<rect width="32" height="32" fill="white" transform="translate(0.000488281)"/>
</clipPath>
</defs>
</svg>
