<svg width="32" height="32" viewBox="0 0 32 32" fill="none" xmlns="http://www.w3.org/2000/svg">
<path d="M16.0001 12.6933C15.3461 12.6933 14.7068 12.8873 14.163 13.2506C13.6192 13.614 13.1954 14.1304 12.9451 14.7346C12.6948 15.3388 12.6294 16.0037 12.757 16.6451C12.8845 17.2865 13.1995 17.8757 13.6619 18.3382C14.1244 18.8006 14.7136 19.1155 15.355 19.2431C15.9964 19.3707 16.6613 19.3052 17.2655 19.055C17.8697 18.8047 18.3861 18.3809 18.7495 17.8371C19.1128 17.2933 19.3067 16.654 19.3067 16C19.3067 15.5658 19.2212 15.1358 19.055 14.7346C18.8889 14.3334 18.6453 13.9689 18.3382 13.6618C18.0312 13.3548 17.6667 13.1112 17.2655 12.945C16.8643 12.7789 16.4343 12.6933 16.0001 12.6933ZM29.2401 9.42667C29.2331 8.39702 29.0435 7.37677 28.6801 6.41334C28.4125 5.70835 27.9984 5.06813 27.4652 4.53492C26.932 4.00171 26.2917 3.58763 25.5868 3.32001C24.6233 2.95662 23.6031 2.76702 22.5734 2.76C20.8534 2.66667 20.3467 2.66667 16.0001 2.66667C11.6534 2.66667 11.1467 2.66667 9.42675 2.76C8.39709 2.76702 7.37684 2.95662 6.41341 3.32001C5.70843 3.58763 5.06821 4.00171 4.535 4.53492C4.00178 5.06813 3.5877 5.70835 3.32008 6.41334C2.9567 7.37677 2.7671 8.39702 2.76008 9.42667C2.66675 11.1467 2.66675 11.6533 2.66675 16C2.66675 20.3467 2.66675 20.8533 2.76008 22.5733C2.77443 23.6066 2.96378 24.63 3.32008 25.6C3.58652 26.3018 4.00025 26.9383 4.53341 27.4667C5.06434 28.0031 5.70593 28.4172 6.41341 28.68C7.37684 29.0434 8.39709 29.233 9.42675 29.24C11.1467 29.3333 11.6534 29.3333 16.0001 29.3333C20.3467 29.3333 20.8534 29.3333 22.5734 29.24C23.6031 29.233 24.6233 29.0434 25.5868 28.68C26.2942 28.4172 26.9358 28.0031 27.4667 27.4667C27.9999 26.9383 28.4136 26.3018 28.6801 25.6C29.0431 24.6319 29.2327 23.6073 29.2401 22.5733C29.3334 20.8533 29.3334 20.3467 29.3334 16C29.3334 11.6533 29.3334 11.1467 29.2401 9.42667ZM25.8534 20.0933C25.8106 20.9161 25.635 21.7266 25.3334 22.4933C25.0746 23.1329 24.6898 23.7139 24.2019 24.2018C23.714 24.6897 23.133 25.0745 22.4934 25.3333C21.7194 25.6181 20.9044 25.7757 20.0801 25.8H11.9201C11.0957 25.7757 10.2807 25.6181 9.50675 25.3333C8.84555 25.0876 8.24845 24.6956 7.76008 24.1867C7.27697 23.7083 6.90387 23.1305 6.66675 22.4933C6.38082 21.7202 6.22756 20.9042 6.21341 20.08V16V11.92C6.22756 11.0958 6.38082 10.2799 6.66675 9.50667C6.91246 8.84548 7.30445 8.24837 7.81342 7.76001C8.29386 7.2795 8.8711 6.9068 9.50675 6.66667C10.2807 6.38188 11.0957 6.22428 11.9201 6.20001H20.0801C20.9044 6.22428 21.7194 6.38188 22.4934 6.66667C23.1546 6.91238 23.7517 7.30437 24.2401 7.81334C24.7232 8.29167 25.0963 8.86951 25.3334 9.50667C25.6182 10.2807 25.7758 11.0956 25.8001 11.92V16C25.8001 18.7467 25.8934 19.0267 25.8534 20.08V20.0933ZM23.7201 10.1733C23.5613 9.74265 23.311 9.35153 22.9865 9.02696C22.6619 8.70238 22.2708 8.45209 21.8401 8.29334C21.2487 8.08835 20.6259 7.98906 20.0001 8.00001H12.0001C11.3711 8.00615 10.7482 8.12352 10.1601 8.34667C9.73599 8.49821 9.34901 8.73829 9.02486 9.05094C8.70071 9.36359 8.44683 9.74166 8.28008 10.16C8.08645 10.7538 7.99185 11.3755 8.00008 12V20C8.0133 20.6283 8.13044 21.25 8.34675 21.84C8.5055 22.2707 8.75579 22.6618 9.08037 22.9864C9.40494 23.311 9.79606 23.5613 10.2267 23.72C10.7956 23.9292 11.3943 24.0463 12.0001 24.0667H20.0001C20.6291 24.0605 21.252 23.9432 21.8401 23.72C22.2708 23.5613 22.6619 23.311 22.9865 22.9864C23.311 22.6618 23.5613 22.2707 23.7201 21.84C23.9432 21.2519 24.0606 20.629 24.0667 20V16V12C24.0671 11.3704 23.9496 10.7463 23.7201 10.16V10.1733ZM16.0001 21.0933C15.3318 21.0933 14.6702 20.9615 14.053 20.7054C13.4358 20.4492 12.8752 20.0739 12.4033 19.6007C11.9314 19.1276 11.5574 18.566 11.3029 17.9481C11.0484 17.3303 10.9183 16.6682 10.9201 16C10.9201 14.9921 11.2191 14.0068 11.7794 13.1689C12.3397 12.331 13.1359 11.6782 14.0674 11.2931C14.9988 10.908 16.0236 10.8079 17.012 11.0055C18.0004 11.2031 18.9079 11.6896 19.6197 12.4032C20.3314 13.1169 20.8155 14.0257 21.0105 15.0145C21.2055 16.0034 21.1028 17.0279 20.7152 17.9584C20.3277 18.8888 19.6728 19.6834 18.8334 20.2414C17.9941 20.7995 17.008 21.096 16.0001 21.0933ZM21.3334 11.9067C21.0387 11.8755 20.7659 11.7363 20.5677 11.516C20.3694 11.2956 20.2597 11.0097 20.2597 10.7133C20.2597 10.4169 20.3694 10.131 20.5677 9.91071C20.7659 9.69038 21.0387 9.5512 21.3334 9.52001C21.6282 9.5512 21.9009 9.69038 22.0992 9.91071C22.2974 10.131 22.4071 10.4169 22.4071 10.7133C22.4071 11.0097 22.2974 11.2956 22.0992 11.516C21.9009 11.7363 21.6282 11.8755 21.3334 11.9067Z" fill="#35312E"/>
</svg>
