<svg width="32" height="32" viewBox="0 0 32 32" fill="none" xmlns="http://www.w3.org/2000/svg">
<path d="M2.5185 8.45759L14.5185 14.904C14.9217 15.12 15.4433 15.2224 15.9681 15.2224C16.4929 15.2224 17.0145 15.12 17.4177 14.904L29.4177 8.45759C30.2001 8.03679 30.9393 6.39999 29.5041 6.39999H2.4337C0.9985 6.39999 1.7377 8.03679 2.5185 8.45759ZM29.7809 11.9824L17.4177 18.4256C16.8737 18.7104 16.4929 18.744 15.9681 18.744C15.4433 18.744 15.0625 18.7104 14.5185 18.4256C13.9745 18.1408 3.1057 12.4432 2.2177 11.9808C1.5937 11.6544 1.6001 12.0368 1.6001 12.3312V24C1.6001 24.672 2.5057 25.6 3.2001 25.6H28.8001C29.4945 25.6 30.4001 24.672 30.4001 24V12.3328C30.4001 12.0384 30.4065 11.656 29.7809 11.9824Z" fill="black"/>
</svg>
