<svg width="32" height="32" viewBox="0 0 32 32" fill="none" xmlns="http://www.w3.org/2000/svg">
<path d="M31.5244 6.58266C30.4111 7.07599 29.2151 7.40932 27.9578 7.55999C29.2551 6.78371 30.2257 5.56195 30.6884 4.12266C29.4696 4.84664 28.1356 5.35625 26.7444 5.62932C25.8089 4.63048 24.5698 3.96843 23.2195 3.74596C21.8692 3.52349 20.4832 3.75305 19.2767 4.39899C18.0703 5.04494 17.1108 6.07114 16.5473 7.31826C15.9838 8.56538 15.8478 9.96366 16.1604 11.296C13.6907 11.172 11.2746 10.5301 9.06899 9.41186C6.86338 8.29367 4.91754 6.72421 3.35776 4.80532C2.82442 5.72532 2.51776 6.79199 2.51776 7.92799C2.51716 8.95065 2.769 9.95765 3.25093 10.8596C3.73286 11.7616 4.42997 12.5307 5.28042 13.0987C4.29412 13.0673 3.32959 12.8008 2.46709 12.3213V12.4013C2.46699 13.8356 2.96313 15.2258 3.87133 16.336C4.77953 17.4461 6.04385 18.2079 7.44976 18.492C6.5348 18.7396 5.57554 18.7761 4.64442 18.5987C5.04109 19.8328 5.81375 20.912 6.85425 21.6852C7.89474 22.4584 9.15098 22.8869 10.4471 22.9107C8.24687 24.6379 5.52961 25.5748 2.73242 25.5707C2.23693 25.5708 1.74186 25.5419 1.24976 25.484C4.08906 27.3096 7.39421 28.2784 10.7698 28.2747C22.1964 28.2747 28.4431 18.8107 28.4431 10.6027C28.4431 10.336 28.4364 10.0667 28.4244 9.79999C29.6395 8.92129 30.6883 7.83319 31.5218 6.58666L31.5244 6.58266Z" fill="#35312E"/>
</svg>
